<svg width="360" height="258" viewBox="0 0 360 258" fill="none" xmlns="http://www.w3.org/2000/svg">
<rect width="360" height="258" fill="#1E1E1E"/>
<g clip-path="url(#clip0_0_1)">
<rect width="360" height="258" fill="#D6D4D8"/>
<path fill-rule="evenodd" clip-rule="evenodd" d="M0.00397998 0L187.033 0L360 0V184.063H215.861C215.861 184.096 215.888 184.245 215.941 184.499L101.978 184.499L101.956 184.499L0.00396882 184.063C0.00396882 155.546 0.0127209 127.031 0.146446 98.5137C0.163115 94.9186 0.178799 91.3234 0.194483 87.7283L0.199661 86.5419C0.245498 76.1766 0.29282 65.8113 0.340143 55.4461L0.340147 55.4452L0.355527 52.0759C0.413102 39.2672 0.470676 29.6186 0.52868 19.898C0.587556 10.0312 -0.056231 13.3953 0.00397998 0Z" fill="#D6D4D8"/>
<path d="M202.411 92.5918C203.626 92.8906 203.626 92.8906 204.865 93.1954C223.039 98.0365 236.264 108.119 244.592 120.894C251.409 132.109 251.698 146.142 246.082 157.641C239.653 170.131 228.361 180.115 212.395 186.362C196.46 191.63 176.991 193.752 160.336 189.026C159.605 188.833 158.874 188.64 158.121 188.441C149.672 186.032 142.172 182.255 135.376 177.837C134.947 177.562 134.519 177.286 134.077 177.003C127.245 172.267 122.424 166.12 118.973 159.723C118.696 159.23 118.418 158.738 118.132 158.23C112.685 147.969 112.761 134.936 117.547 124.559C117.843 123.857 117.843 123.857 118.146 123.142C121.222 116.629 126.764 110.764 133.236 105.911C133.816 105.471 134.396 105.031 134.994 104.577C143.756 98.132 153.487 94.4157 165.328 92.059C166.256 91.8211 166.256 91.8211 167.202 91.5783C178.357 88.9461 191.468 89.8274 202.411 92.5918Z" fill="#FE9175"/>
<path d="M235.971 113C238.212 113.705 239.237 114.29 240.382 115.891C240.647 116.258 240.911 116.626 241.184 117.005C241.454 117.398 241.723 117.792 242 118.198C242.281 118.602 242.562 119.007 242.851 119.424C250.36 130.536 252.25 144.515 247.103 156.441C240.89 169.766 229.469 180.548 212.562 187.16C202.014 190.645 192.22 192.021 180.729 191.994C179.853 191.996 178.977 191.998 178.075 192C176.824 191.999 176.824 191.999 175.547 191.998C174.789 191.997 174.03 191.997 173.248 191.996C171.419 191.928 171.419 191.928 170 191.398C170.433 189.829 171.084 188.681 172.242 187.336C172.565 186.957 172.888 186.579 173.221 186.188C173.577 185.777 173.933 185.366 174.301 184.942C174.676 184.503 175.052 184.065 175.439 183.613C176.261 182.653 177.085 181.695 177.91 180.737C179.248 179.184 180.581 177.628 181.912 176.071C184.298 173.283 186.688 170.497 189.079 167.711C191.603 164.77 194.124 161.828 196.645 158.887C197.101 158.355 197.557 157.824 198.026 157.276C198.464 156.766 198.902 156.255 199.353 155.729C199.78 155.233 200.208 154.738 200.648 154.227C201.514 153.208 202.362 152.181 203.193 151.147C205.589 148.199 207.637 146.107 211.453 144.154C212.571 143.569 212.571 143.569 213.712 142.972C214.269 142.696 214.826 142.419 215.399 142.134C214.697 141.61 213.995 141.086 213.271 140.545C214.466 137.926 216.423 135.738 218.414 133.427C218.784 132.994 219.154 132.561 219.535 132.115C220.333 131.181 221.132 130.248 221.932 129.315C223.25 127.776 224.563 126.234 225.873 124.691C233.247 116.016 233.247 116.016 235.971 113Z" fill="#FE5023"/>
<path d="M194.468 90.9752C193.357 94.3506 190.733 96.9844 188.183 99.8327C187.219 100.922 186.255 102.012 185.292 103.102C184.803 103.653 184.314 104.203 183.81 104.77C181.532 107.343 179.286 109.931 177.04 112.52C176.269 113.407 175.497 114.294 174.725 115.181C174.175 115.815 173.624 116.448 173.073 117.082C170.778 116.746 169.145 116.133 167.19 115.184C166.686 114.941 166.182 114.699 165.663 114.449C165.095 114.17 165.095 114.17 164.516 113.885C164.56 114.235 164.605 114.586 164.651 114.947C165.619 123.714 164.397 128.985 157.294 135.969C154.789 138.515 152.595 141.215 150.342 143.887C149.37 145.022 148.397 146.156 147.422 147.29C145.123 149.972 142.836 152.66 140.553 155.351C136.267 160.399 131.914 165.407 127.432 170.36C124.685 168.569 123.286 166.609 121.727 164.2C121.354 163.629 121.354 163.629 120.973 163.046C113.359 151.224 111.671 137.067 117.448 124.541C117.744 123.839 117.744 123.839 118.047 123.123C121.123 116.611 126.665 110.746 133.137 105.893C133.717 105.453 134.297 105.013 134.895 104.559C143.657 98.1137 153.388 94.3974 165.229 92.0408C166.157 91.8028 166.157 91.8028 167.104 91.56C175.314 89.6225 186.062 89.5635 194.468 90.9752Z" fill="#FE5023"/>
<path d="M164 113C169.181 115.36 174.221 117.687 179.154 120.277C180.367 120.909 181.581 121.541 182.794 122.172C183.709 122.65 183.709 122.65 184.641 123.137C187.536 124.649 190.437 126.155 193.34 127.658C193.903 127.95 194.466 128.242 195.045 128.543C198.217 130.183 201.407 131.8 204.621 133.398C205.323 133.747 206.025 134.096 206.748 134.456C208.107 135.13 209.467 135.802 210.83 136.471C213.794 137.941 216.579 139.341 219 141.277C213.386 144.473 207.659 147.483 201.716 150.356C197.008 152.633 192.39 154.963 187.869 157.426C183.705 159.691 179.491 161.886 175.184 164.01C174.686 164.257 174.188 164.503 173.675 164.757C173.197 164.991 172.72 165.225 172.228 165.465C171.816 165.667 171.404 165.868 170.979 166.076C168.702 167.109 166.34 168.043 164 169C164 150.52 164 132.04 164 113Z" fill="#FFFEFE"/>
</g>
<defs>
<clipPath id="clip0_0_1">
<rect width="360" height="258" fill="white"/>
</clipPath>
</defs>
</svg>
